<svg width="240" height="320" viewBox="0 0 240 320" fill="none" xmlns="http://www.w3.org/2000/svg">
  <rect width="240" height="320" rx="28" fill="#07111D"/>
  <rect x="22" y="22" width="196" height="276" rx="22" fill="url(#guideBg)"/>
  <rect x="43" y="45" width="154" height="218" rx="18" fill="white" fill-opacity="0.93"/>
  <text x="61" y="87" fill="#111827" font-family="Inter, Arial, sans-serif" font-size="35" font-weight="900" letter-spacing="-1.6">VIRAL</text>
  <text x="61" y="125" fill="#111827" font-family="Inter, Arial, sans-serif" font-size="32" font-weight="900" letter-spacing="-1.4">SCRIPT</text>
  <text x="61" y="163" fill="#111827" font-family="Inter, Arial, sans-serif" font-size="36" font-weight="900" letter-spacing="-1.6">PACK</text>
  <rect x="61" y="180" width="117" height="20" rx="10" fill="#5A78FF"/>
  <text x="76" y="194" fill="white" font-family="Inter, Arial, sans-serif" font-size="9" font-weight="900" letter-spacing="1">30 HOOKS THAT SELL</text>
  <rect x="63" y="218" width="18" height="18" rx="6" fill="#5A78FF"/>
  <path d="M68 227L73 232L79 222" stroke="white" stroke-width="3" stroke-linecap="round" stroke-linejoin="round"/>
  <rect x="91" y="222" width="74" height="10" rx="5" fill="#141B2B" fill-opacity="0.22"/>
  <rect x="63" y="246" width="18" height="18" rx="6" fill="#38D6B2"/>
  <path d="M68 255L73 260L79 250" stroke="white" stroke-width="3" stroke-linecap="round" stroke-linejoin="round"/>
  <rect x="91" y="250" width="58" height="10" rx="5" fill="#141B2B" fill-opacity="0.22"/>
  <path d="M36 279C70 251 101 285 132 252C154 228 176 263 202 235" stroke="#9BFFCB" stroke-width="8" stroke-linecap="round"/>
  <defs>
    <linearGradient id="guideBg" x1="29" y1="35" x2="214" y2="291" gradientUnits="userSpaceOnUse">
      <stop stop-color="#5A78FF"/>
      <stop offset="0.5" stop-color="#38D6B2"/>
      <stop offset="1" stop-color="#102B3E"/>
    </linearGradient>
  </defs>
</svg>
