<svg width="240" height="320" viewBox="0 0 240 320" fill="none" xmlns="http://www.w3.org/2000/svg">
  <rect width="240" height="320" rx="28" fill="#07111D"/>
  <rect x="18" y="22" width="204" height="276" rx="22" fill="url(#templateBg)"/>
  <path d="M40 50C84 20 126 49 166 31C196 18 215 30 222 45V22H18V114C25 88 23 61 40 50Z" fill="#FFF4C7" fill-opacity="0.18"/>
  <path d="M41 55C76 30 114 45 137 28" stroke="#FFF4C7" stroke-width="9" stroke-linecap="round" stroke-opacity="0.55"/>
  <path d="M64 251C88 221 110 235 130 207C146 184 165 220 190 188" stroke="#9BFFCB" stroke-width="8" stroke-linecap="round"/>
  <circle cx="190" cy="188" r="9" fill="#9BFFCB"/>
  <text x="34" y="88" fill="white" font-family="Inter, Arial, sans-serif" font-size="31" font-weight="900" letter-spacing="-1.4">BUILT TO</text>
  <text x="34" y="123" fill="white" font-family="Inter, Arial, sans-serif" font-size="34" font-weight="900" letter-spacing="-1.5">BREAK</text>
  <text x="34" y="158" fill="white" font-family="Inter, Arial, sans-serif" font-size="22" font-weight="900" letter-spacing="0.2">THE ALGORITHM</text>
  <rect x="34" y="177" width="92" height="24" rx="12" fill="#111827" fill-opacity="0.42"/>
  <text x="48" y="193" fill="#FFF4C7" font-family="Inter, Arial, sans-serif" font-size="10" font-weight="900" letter-spacing="1">TEMPLATE</text>
  <text x="34" y="222" fill="#111827" fill-opacity="0.72" font-family="Inter, Arial, sans-serif" font-size="10" font-weight="900" letter-spacing="1.1">MASTER THE SCIENCE</text>
  <text x="34" y="237" fill="#111827" fill-opacity="0.72" font-family="Inter, Arial, sans-serif" font-size="10" font-weight="900" letter-spacing="1.1">OF ATTENTION</text>
  <defs>
    <linearGradient id="templateBg" x1="26" y1="34" x2="220" y2="284" gradientUnits="userSpaceOnUse">
      <stop stop-color="#FF8D62"/>
      <stop offset="0.42" stop-color="#D94B78"/>
      <stop offset="1" stop-color="#3921A8"/>
    </linearGradient>
  </defs>
</svg>
